<?xml version="1.0" encoding="UTF-8" standalone="no"?>
<svg
   xmlns:dc="http://purl.org/dc/elements/1.1/"
   xmlns:cc="http://creativecommons.org/ns#"
   xmlns:rdf="http://www.w3.org/1999/02/22-rdf-syntax-ns#"
   xmlns:svg="http://www.w3.org/2000/svg"
   xmlns="http://www.w3.org/2000/svg"
   xmlns:sodipodi="http://sodipodi.sourceforge.net/DTD/sodipodi-0.dtd"
   xmlns:inkscape="http://www.inkscape.org/namespaces/inkscape"
   inkscape:version="1.0 (4035a4fb49, 2020-05-01)"
   sodipodi:docname="ballot_picture.svg"
   viewBox="0 0 300 300"
   height="300"
   width="300"
   id="svg833"
   version="1.1">
  <metadata
     id="metadata839">
    <rdf:RDF>
      <cc:Work
         rdf:about="">
        <dc:format>image/svg+xml</dc:format>
        <dc:type
           rdf:resource="http://purl.org/dc/dcmitype/StillImage" />
        <dc:title />
      </cc:Work>
    </rdf:RDF>
  </metadata>
  <defs
     id="defs837" />
  <sodipodi:namedview
     inkscape:current-layer="layer1"
     inkscape:window-maximized="1"
     inkscape:window-y="-9"
     inkscape:window-x="-9"
     inkscape:cy="159.9824"
     inkscape:cx="135.27911"
     inkscape:zoom="2.2021024"
     showgrid="false"
     id="namedview835"
     inkscape:window-height="1051"
     inkscape:window-width="1920"
     inkscape:pageshadow="2"
     inkscape:pageopacity="0"
     guidetolerance="10"
     gridtolerance="10"
     objecttolerance="10"
     borderopacity="1"
     bordercolor="#666666"
     pagecolor="#121212"
     inkscape:document-rotation="0"
     inkscape:snap-nodes="true" />
  <g
     sodipodi:insensitive="true"
     inkscape:label="Layer 1"
     id="layer1"
     inkscape:groupmode="layer"
     style="display:inline" />
  <g
     id="g2129"
     transform="matrix(1.2645769,0,0,1.2645769,-39.518416,-20.271232)">
    <path
       id="path892"
       d="m 109.77401,179.23074 c -1.56475,-0.34001 -2.32356,-1.24066 -2.09242,-2.48355 0.18792,-1.01051 0.98071,-1.63742 2.5499,-2.01637 0.47909,-0.1157 3.10142,-0.12595 37.95269,-0.14843 22.20809,-0.0143 38.28385,0.004 39.51717,0.0445 1.82172,0.0601 2.14284,0.0888 2.59377,0.23131 1.46139,0.46194 2.10831,1.16309 2.10831,2.28506 0,1.10643 -0.65282,1.74567 -2.12282,2.0787 -0.48583,0.11006 -3.7845,0.11939 -40.28914,0.11403 -33.11814,-0.005 -39.8364,-0.0225 -40.21746,-0.10525 z"
       style="display:inline;fill:#ffec4f;stroke:#ffec4f;stroke-width:0.0735203;stroke-opacity:1" />
    <path
       id="path894"
       d="m 138.05893,201.3257 -41.134616,-0.038 -0.551163,-0.17071 c -1.442644,-0.44681 -1.986736,-1.09442 -1.89366,-2.25395 0.08161,-1.01665 0.787339,-1.69143 2.199365,-2.1029 0.484729,-0.14125 0.789742,-0.16207 3.00247,-0.20498 4.405844,-0.0854 102.173074,0.0376 102.696694,0.12928 1.60736,0.28131 2.60271,1.01783 2.79313,2.06681 0.22177,1.22166 -0.40704,2.00685 -1.96078,2.44843 l -0.56384,0.16024 -11.72649,0.002 c -6.44957,0.001 -30.23707,-0.0152 -52.86111,-0.0361 z"
       style="display:inline;fill:#ffec4f;stroke:#ffec4f;stroke-width:0.0735203;stroke-opacity:1" />
    <g
       id="g1004"
       style="display:inline">
      <path
         id="path998"
         d="m 123.49287,43.419226 c -2.09194,-2.066706 -3.86652,-3.835459 -3.9435,-3.930562 -0.38429,-0.474748 -0.77358,-1.168317 -0.94303,-1.680137 -0.12287,-0.371097 -0.16686,-0.615238 -0.16823,-0.933576 -10e-4,-0.321529 0.0437,-0.539555 0.16606,-0.802561 0.20593,-0.442714 0.69673,-0.918485 1.20611,-1.169185 0.45635,-0.224599 0.99191,-0.253977 1.37634,-0.0755 0.26464,0.122861 1.22794,0.988919 3.98919,3.586487 2.20468,2.073991 2.81035,2.625214 3.40492,3.098798 0.45723,0.364194 0.74285,0.518419 0.96011,0.518419 0.1271,0 0.30562,-0.08422 0.41211,-0.194434 0.0906,-0.09377 2.81322,-3.977034 6.70108,-9.557758 1.15598,-1.65932 1.27155,-1.829453 1.70285,-2.506836 0.64876,-1.018932 1.00494,-1.501749 1.44141,-1.95394 1.03971,-1.077148 1.92067,-1.239561 2.86595,-0.528368 0.49087,0.369316 0.77932,0.75838 0.93103,1.255784 0.0539,0.176564 0.059,0.226068 0.0606,0.577915 0.002,0.440654 -0.0226,0.590723 -0.16885,1.033491 -0.18473,0.55923 -0.29846,0.748027 -1.8545,3.078624 -3.1212,4.674831 -5.96579,9.019584 -7.73094,11.808037 -0.44254,0.699099 -1.17396,1.873983 -1.28335,2.061484 l -0.0417,0.07147 h -2.64005 -2.64004 z"
         style="fill:#ffec4f;stroke:#ffec4f;stroke-width:0.0219892;stroke-opacity:1" />
      <path
         sodipodi:nodetypes="ssscscsss"
         id="path1000"
         d="m 130.02424,49.243418 c -0.30682,-0.06744 -0.65775,-0.22738 -0.99104,-0.451668 -0.31159,-0.209679 -0.51592,-0.391997 -1.1118,-0.992049 l -0.62496,-0.622823 2.60992,-1.118317 c 1.32776,-0.568926 2.70864,1.056457 2.70341,1.065547 -0.13338,0.231279 -0.59832,1.005492 -0.65032,1.086255 -0.26358,0.409376 -0.62157,0.755747 -0.9533,0.922356 -0.26833,0.134767 -0.66763,0.179784 -0.98191,0.110699 z"
         style="fill:#ffec4f;stroke:#ffec4f;stroke-width:0.0219892;stroke-opacity:1" />
    </g>
    <path
       style="display:inline;fill:#ffec4f;stroke:#ffec4f;stroke-width:0.0226418;stroke-miterlimit:4;stroke-dasharray:none;stroke-opacity:1"
       d="m 119.43537,59.224457 c -0.79136,-0.213595 -1.31966,-0.786757 -1.55382,-1.685736 -0.071,-0.272621 -0.0857,-1.102874 -0.0938,-5.316026 -0.005,-2.74612 0.01,-5.069362 0.0339,-5.16276 0.116,-0.452594 0.43546,-0.912725 0.80247,-1.155823 0.49355,-0.326909 0.91832,-0.429321 1.77219,-0.427271 0.66104,0.0016 0.80806,0.01931 1.08945,0.131357 0.47446,0.188918 0.90049,0.603327 1.16007,1.128434 l 0.21278,0.43045 0.0163,3.385156 0.0163,3.385156 h 7.498 7.498 v -3.956359 c 0,-3.781418 0.005,-3.972385 0.11194,-4.318759 0.22089,-0.715178 0.76031,-1.268262 1.45625,-1.493158 0.23904,-0.07725 0.48936,-0.105203 0.92242,-0.103022 1.21723,0.0061 2.02936,0.409992 2.41868,1.202784 l 0.15683,0.319335 0.0152,5.760341 c 0.0167,6.322178 0.0254,6.136981 -0.32235,6.825921 -0.20801,0.412068 -0.63918,0.808285 -1.06824,0.981649 l -0.32274,0.130403 -10.75488,0.01079 c -9.33457,0.0094 -10.7958,-2.54e-4 -11.06482,-0.07287 z"
       id="path1014" />
    <g
       id="g2105">
      <path
         style="fill:#ffec4f;stroke:#ffec4f;stroke-width:0.165541;stroke-opacity:1"
         d="m 46.155426,169.99207 v -46.09641 l 7.340362,-13.20875 C 68.492737,83.700382 67.999949,84.553536 68.918519,83.985829 69.443872,83.661141 69.754782,83.655468 87.022272,83.655468 H 104.59149 V 50.370791 c 0,-33.667802 0.001,-33.754639 0.56279,-34.129469 0.29555,-0.197338 88.96389,-0.155011 89.33321,0.04265 0.17402,0.09313 0.39474,0.315702 0.49048,0.494594 0.12015,0.224501 0.17189,10.633456 0.16701,33.601083 l -0.007,33.275824 h 17.42812 c 16.65878,0 17.45339,0.01356 18.00077,0.307124 1.10896,0.594738 0.74404,-0.0274 14.53805,24.785103 l 8.47376,15.24252 v 46.04913 46.04913 h -2.64866 -2.64866 V 171.64065 127.19282 H 187.638 c -33.35385,0 -77.4168,0.0496 -97.917663,0.11024 l -37.274293,0.11024 v 44.33759 44.33759 H 49.30071 46.155426 Z M 246.6259,121.80236 c 0,-0.0512 -4.21859,-7.53782 -9.37465,-16.63689 L 227.8766,88.621706 h -16.11871 -16.1187 v 6.869962 6.869962 h 5.72206 c 3.60796,0 5.83972,0.063 6.04054,0.17045 0.59921,0.32069 0.87599,1.14372 0.88905,2.64375 0.008,0.86444 -0.0698,1.55075 -0.20049,1.77957 l -0.21276,0.37247 -57.80946,-0.003 c -31.7952,-0.001 -57.908061,-0.065 -58.028573,-0.14146 -0.319571,-0.20261 -0.554054,-1.44369 -0.438821,-2.32259 0.182866,-1.39473 0.261908,-1.64284 0.660308,-2.07272 l 0.395669,-0.42694 h 5.801848 5.801849 V 95.491668 88.621706 H 88.155972 72.051533 l -9.347531,16.487644 c -5.141142,9.06821 -9.372362,16.55482 -9.402711,16.6369 -0.03273,0.0885 39.281413,0.14925 96.634709,0.14925 53.17945,0 96.6899,-0.0419 96.6899,-0.0931 z m -70.87904,-19.55078 14.42947,-0.11004 V 61.776745 21.411952 H 150.19811 110.2199 v 40.474839 40.474839 h 25.54874 c 14.05182,0 32.04201,-0.0495 39.97822,-0.11005 z"
         id="path912" />
      <path
         style="fill:#ffec4f;stroke:#ffec4f;stroke-width:0.0803381;stroke-opacity:1"
         d="m 249.45488,253.15798 c 0,-0.0648 -14.05607,-0.0888 -51.89842,-0.0888 h -51.89841 v -2.49048 -2.49048 h 51.25571 51.25571 v -15.94711 -15.94712 h 2.69133 2.69133 v 17.23675 c 0,18.70577 0.0198,17.83895 -0.42593,18.63422 -0.21181,0.37791 -0.78835,0.78831 -1.36956,0.9749 -0.50411,0.16185 -2.30176,0.2541 -2.30176,0.11812 z"
         id="path928" />
      <path
         style="fill:#ffec4f;stroke:#ffec4f;stroke-width:0.477219;stroke-opacity:1"
         d="m 46.933093,252.77475 c -0.462302,-0.18654 -0.596524,-4.25841 -0.596524,-18.09666 v -18.74973 l 2.800879,-0.24975 3.136042,-0.0624 v 16.64201 l 0.26435,15.96704 46.591326,0.0624 h 47.193664 v 2.18666 l -0.26435,2.36673 -49.460456,-0.0377 c -26.837624,-0.0207 -49.336842,0.10379 -49.664931,-0.0286 z"
         id="path930"
         sodipodi:nodetypes="ssccccccccccs" />
      <g
         id="g952">
        <path
           id="path946"
           d="m 79.758937,215.29903 c -0.316062,-0.0978 -0.685858,-0.47565 -0.815602,-0.83334 -0.151992,-0.41901 -0.150469,-56.03022 0.0015,-56.39404 0.154955,-0.37086 0.610641,-0.74387 1.168356,-0.95638 0.354902,-0.13523 0.75607,-0.19786 1.577609,-0.24631 0.605926,-0.0357 30.3055,-0.0897 65.99904,-0.11984 l 64.89736,-0.0549 v 2.6594 2.65941 H 148.15912 83.730999 v 24.19624 24.19625 h 64.428121 64.42812 v 2.39724 2.39724 l -39.06898,0.051 c -21.48794,0.028 -51.31604,0.0684 -66.28467,0.0896 -17.695208,0.0251 -27.306269,0.0106 -27.474653,-0.0415 z"
           style="fill:#ffec4f;stroke:#ffec4f;stroke-width:0.0816062;stroke-opacity:1" />
        <path
           sodipodi:nodetypes="ccccccccccssssscc"
           id="path948"
           d="m 212.52982,212.75113 v -2.27332 h 1.83574 1.54238 V 186.22214 161.9298 h -1.54238 -1.85407 v -2.54513 l 0.0183,-2.61846 h 3.39229 c 3.27328,0 4.51261,0.20933 4.92746,0.98447 0.12631,0.23601 0.19965,10.71566 0.19965,28.52889 0,27.01575 -0.0152,28.16963 -0.37609,28.49619 -0.3209,0.29042 -0.92435,0.35868 -4.11302,0.35868 h -4.03029 z"
           style="fill:#ffec4f;stroke:#ffec4f;stroke-width:0.205651;stroke-opacity:1" />
      </g>
      <path
         id="path1045"
         d="m 119.44963,95.193549 c -0.94678,-0.247472 -1.62186,-0.954243 -1.88634,-1.974875 -0.0841,-0.32456 -0.0944,-1.459199 -0.0937,-10.349843 5.8e-4,-8.138079 0.0155,-10.040842 0.0809,-10.285441 0.31911,-1.194598 1.37222,-1.888183 3.03965,-2.001918 0.31363,-0.02139 4.7569,-0.02518 9.87394,-0.0084 l 9.30371,0.03049 0.48019,0.139028 c 1.29172,0.373987 2.02301,1.025538 2.24857,2.003392 0.0379,0.164347 0.0596,3.831725 0.06,10.131525 4.8e-4,8.541465 -0.0115,9.92516 -0.0889,10.253514 -0.26712,1.133066 -1.00207,1.885001 -2.05755,2.105109 -0.22532,0.04699 -3.27095,0.06532 -10.44416,0.06287 -9.32816,-0.0032 -10.15683,-0.0115 -10.51624,-0.10544 z m 17.58701,-12.40609 V 76.09479 h -6.81272 -6.81271 v 6.692669 6.692669 h 6.81271 6.81272 z"
         style="fill:#ffec4f;stroke:#ffec4f;stroke-width:0.0240096;stroke-miterlimit:4;stroke-dasharray:none;stroke-opacity:1" />
      <path
         id="path2962"
         d="m 170.80312,51.772653 c -2.96515,-0.02224 -7.69777,-0.05742 -10.51694,-0.07818 -5.24276,-0.0386 -6.20331,-0.05988 -6.93204,-0.153609 -2.15612,-0.277309 -3.13712,-1.237993 -2.98936,-2.927441 0.0604,-0.690604 0.23626,-1.158404 0.56933,-1.514457 0.40551,-0.433491 0.87467,-0.630963 1.82101,-0.766482 0.60811,-0.08708 2.90938,-0.09386 11.36877,-0.0335 10.09584,0.07204 13.57821,0.10962 14.06099,0.151723 0.9014,0.07861 1.54915,0.232441 2.09012,0.49638 1.01556,0.495487 1.43451,1.336865 1.27938,2.569373 -0.14187,1.12709 -0.62532,1.742112 -1.60328,2.039619 -0.85677,0.260636 -1.43809,0.274397 -9.14798,0.216567 z"
         style="fill:#ffec4f;stroke:#ffec4f;stroke-width:0.0132706;stroke-miterlimit:4;stroke-dasharray:none;stroke-opacity:1" />
      <path
         style="fill:#ffec4f;stroke:#ffec4f;stroke-width:0.0132706;stroke-miterlimit:4;stroke-dasharray:none;stroke-opacity:1"
         d="m 172.00982,85.719448 c -2.96515,-0.02224 -7.69777,-0.05742 -10.51694,-0.07818 -5.24276,-0.0386 -6.20331,-0.05988 -6.93204,-0.153609 -2.15612,-0.277309 -3.13712,-1.237993 -2.98936,-2.927441 0.0604,-0.690604 0.23626,-1.158404 0.56933,-1.514457 0.40551,-0.433491 0.87467,-0.630963 1.82101,-0.766482 0.60811,-0.08708 2.90938,-0.09386 11.36877,-0.0335 10.09584,0.07204 13.57821,0.10962 14.06099,0.151723 0.9014,0.07861 1.54915,0.232441 2.09012,0.49638 1.01556,0.495487 1.43451,1.336865 1.27938,2.569373 -0.14187,1.12709 -0.62532,1.742112 -1.60328,2.039619 -0.85677,0.260636 -1.43809,0.274397 -9.14798,0.216567 z"
         id="path2964" />
    </g>
  </g>
</svg>
