<?xml version="1.0" encoding="UTF-8" standalone="no"?>
<svg
   xmlns:dc="http://purl.org/dc/elements/1.1/"
   xmlns:cc="http://creativecommons.org/ns#"
   xmlns:rdf="http://www.w3.org/1999/02/22-rdf-syntax-ns#"
   xmlns:svg="http://www.w3.org/2000/svg"
   xmlns="http://www.w3.org/2000/svg"
   xmlns:sodipodi="http://sodipodi.sourceforge.net/DTD/sodipodi-0.dtd"
   xmlns:inkscape="http://www.inkscape.org/namespaces/inkscape"
   width="300"
   height="300"
   viewBox="0 0 79.374998 79.375002"
   version="1.1"
   id="svg8"
   sodipodi:docname="default_picture.svg"
   inkscape:version="1.0 (4035a4fb49, 2020-05-01)">
  <defs
     id="defs2">
    <filter
       inkscape:collect="always"
       style="color-interpolation-filters:sRGB"
       id="filter1256"
       x="-0.00045669009"
       width="1.0009134"
       y="-0.00045669009"
       height="1.0009134">
      <feGaussianBlur
         inkscape:collect="always"
         stdDeviation="0.014803555"
         id="feGaussianBlur1258" />
    </filter>
    <filter
       height="1.0009134"
       y="-0.00045669009"
       width="1.0009134"
       x="-0.00045669009"
       id="filter1256-5"
       style="color-interpolation-filters:sRGB"
       inkscape:collect="always">
      <feGaussianBlur
         id="feGaussianBlur1258-2"
         stdDeviation="0.014803555"
         inkscape:collect="always" />
    </filter>
  </defs>
  <sodipodi:namedview
     units="px"
     id="base"
     pagecolor="#121212"
     bordercolor="#666666"
     borderopacity="1.0"
     inkscape:pageopacity="0"
     inkscape:pageshadow="2"
     inkscape:zoom="1.6202805"
     inkscape:cx="404.11415"
     inkscape:cy="158.28575"
     inkscape:document-units="mm"
     inkscape:current-layer="layer3"
     inkscape:document-rotation="0"
     showgrid="false"
     inkscape:snap-nodes="true"
     inkscape:window-width="1920"
     inkscape:window-height="1051"
     inkscape:window-x="-9"
     inkscape:window-y="-9"
     inkscape:window-maximized="1"
     inkscape:object-paths="true"
     inkscape:snap-intersection-paths="true"
     inkscape:snap-smooth-nodes="false"
     inkscape:snap-midpoints="false"
     inkscape:object-nodes="false" />
  <metadata
     id="metadata5">
    <rdf:RDF>
      <cc:Work
         rdf:about="">
        <dc:format>image/svg+xml</dc:format>
        <dc:type
           rdf:resource="http://purl.org/dc/dcmitype/StillImage" />
        <dc:title />
      </cc:Work>
    </rdf:RDF>
  </metadata>
  <g
     sodipodi:insensitive="true"
     inkscape:groupmode="layer"
     id="layer3"
     inkscape:label="Layer 1"
     style="display:inline;filter:url(#filter1256)">
    <g
       transform="matrix(1.022481,0,0,1.0231963,-68.62778,-111.47593)"
       style="display:inline"
       id="g885">
      <path
         id="path1268"
         d="M 133.17018,292.56 C 98.065164,288.59373 69.047554,275.20698 44.947154,251.85993 24.351454,231.90807 10.292053,207.31128 3.8428334,179.94834 0.21861419,164.5714 -0.97519873,144.68572 0.833532,129.82156 8.0482647,70.530823 49.172964,22.092889 106.36951,5.5179597 c 24.57245,-7.120819 52.62444,-7.3588536 77.87921,-0.6608126 25.68729,6.8127119 50.35884,21.4314709 68.31356,40.4781739 31.99211,33.937777 46.19724,80.159889 38.54011,125.405559 -3.95585,23.37464 -13.64459,45.57131 -28.38581,65.03108 -4.66794,6.16214 -16.10785,18.02891 -22.66408,23.50979 -20.43425,17.08264 -45.03497,28.02237 -72.74703,32.35008 -7.56076,1.18072 -27.1787,1.71416 -34.13529,0.92817 z m 29.50499,-10.80604 c 28.85416,-3.08909 56.8323,-16.22567 78.28785,-36.75856 27.43332,-26.25358 42.28532,-60.88433 42.26498,-98.55027 -0.008,-16.47802 -1.9195,-28.38418 -7.01786,-43.73238 C 260.05908,54.091163 218.3286,19.053128 167.05576,11.063774 157.17335,9.5239188 136.55493,9.5058905 126.82499,11.029758 81.787593,18.078086 44.448993,45.325381 24.401392,85.77192 6.4373242,122.01491 5.6491528,165.1016 22.271413,202.21085 c 12.85516,28.6992 36.277531,52.87854 64.468892,66.55245 23.983255,11.63279 48.864985,15.88986 75.934865,12.99183 z"
         style="font-variation-settings:normal;display:inline;opacity:1;vector-effect:none;fill:#ffec4f;fill-opacity:1;stroke:none;stroke-width:0.646156;stroke-linecap:butt;stroke-linejoin:miter;stroke-miterlimit:4;stroke-dasharray:none;stroke-dashoffset:0;stroke-opacity:1;filter:url(#filter1256-5);stop-color:#000000;stop-opacity:1"
         transform="matrix(0.26458333,0,0,0.26458333,67.154298,108.98412)" />
      <path
         id="path1057"
         d="m 82.682879,175.52562 c -0.684004,-0.51568 -1.130202,-1.2765 -1.130202,-1.2765 0.02498,-0.0184 1.049656,-0.39204 1.711845,-0.65747 5.743411,-2.30217 10.736659,-4.9834 13.11659,-7.04323 l 0.54869,-0.47489 v -1.39235 -1.39236 l -0.24014,-0.2658 c -0.13207,-0.14619 -0.54832,-0.67715 -0.925,-1.17991 -1.589065,-2.12098 -2.782068,-4.51119 -3.19879,-6.40885 -0.107807,-0.49093 -0.161763,-0.6001 -0.448376,-0.90715 -1.332746,-1.42779 -2.18013,-3.39799 -2.17687,-5.06131 0.0024,-1.23539 0.444974,-2.72426 1.009002,-3.39457 l 0.170952,-0.20317 -0.05378,-4.22234 c -0.03207,-2.51789 -0.02763,-4.49007 0.01101,-4.88556 0.224954,-2.30292 1.100719,-4.6754 2.428501,-6.57888 0.676686,-0.97009 2.088108,-2.3478 3.074448,-3.00101 1.4563,-0.96444 2.81175,-1.55954 4.572631,-2.00757 4.10224,-1.04375 9.14226,-0.76784 12.68522,0.69444 4.19498,1.73139 6.91232,5.17172 7.82216,9.90339 0.15454,0.80369 0.15638,0.88032 0.13113,5.47269 l -0.0256,4.65758 0.18655,0.2217 c 0.65348,0.77662 1.1185,2.71713 0.94856,3.95831 -0.21471,1.56809 -0.97554,3.15868 -2.08459,4.35803 -0.37942,0.41031 -0.41199,0.4734 -0.52725,1.0212 -0.43951,2.08893 -1.84667,4.74886 -3.78601,7.15664 l -0.51293,0.63683 -10e-4,1.43305 -0.001,1.43305 0.40142,0.3515 c 2.37316,2.078 7.24836,4.70922 13.1245,7.08348 0.70073,0.28313 1.62317,0.67069 1.62317,0.69428 0,0.0236 -0.51917,0.57096 -1.22255,1.12713 l -1.31362,1.0387 -1.76481,-0.91443 c -6.46121,-3.34787 -11.67803,-5.98998 -13.41503,-8.33733 -0.57056,-0.77104 -0.55299,-0.69019 -0.61046,-2.80992 l -0.0516,-1.90236 0.48072,-0.50612 c 1.44975,-1.52637 2.72302,-3.48229 3.54662,-5.4481 0.33922,-0.80965 0.805,-2.21237 0.94927,-2.85875 0.0826,-0.37016 0.12722,-0.43323 0.58461,-0.82664 0.70477,-0.60617 1.26065,-1.27394 1.56154,-1.87583 0.24743,-0.49497 0.25982,-0.55256 0.25538,-1.1868 -0.008,-1.10811 -0.35543,-2.08886 -0.9436,-2.66183 l -0.32826,-0.31977 -0.047,-5.09059 c -0.0258,-2.79983 -0.0775,-5.41371 -0.11483,-5.80863 -0.28075,-2.97072 -2.01156,-5.49407 -4.71602,-6.8755 -1.96901,-1.00576 -3.94445,-1.42983 -6.97196,-1.49669 -2.45342,-0.0542 -3.96975,0.0901 -5.75362,0.54748 -3.474131,0.89074 -5.896685,3.00115 -6.841208,5.95973 -0.393308,1.23199 -0.414684,1.55571 -0.489519,7.41397 l -0.06885,5.38945 -0.303392,0.27965 c -0.751623,0.69283 -1.196449,2.48575 -0.862206,3.47523 0.239874,0.71011 1.018527,1.7039 1.818772,2.32129 0.270407,0.20861 0.394486,0.35799 0.428231,0.51554 0.257892,1.20401 1.037741,3.29711 1.682281,4.5152 0.77017,1.45552 2.00983,3.17167 2.94814,4.08133 l 0.35734,0.34644 v 1.9073 c 0,1.88672 -0.002,1.91095 -0.17138,2.24549 -0.9436,1.86211 -4.349196,4.37529 -9.322942,6.87992 -2.022797,1.01862 -5.074522,2.66652 -6.227626,3.1098 -0.128095,0.0492 -0.437741,-0.14687 -1.484681,-0.93617 z"
         style="font-variation-settings:normal;opacity:1;vector-effect:none;fill:#ffec4f;fill-opacity:1;stroke:none;stroke-width:0.071092;stroke-linecap:butt;stroke-linejoin:miter;stroke-miterlimit:4;stroke-dasharray:none;stroke-dashoffset:0;stroke-opacity:1;stop-color:#000000;stop-opacity:1"
         sodipodi:nodetypes="cssscccsssssscscsssssscssssscccsssscssscssssscscccssssscsssssscscsccc" />
    </g>
  </g>
</svg>
