<?xml version="1.0" encoding="UTF-8" standalone="no"?>
<svg
   xmlns:dc="http://purl.org/dc/elements/1.1/"
   xmlns:cc="http://creativecommons.org/ns#"
   xmlns:rdf="http://www.w3.org/1999/02/22-rdf-syntax-ns#"
   xmlns:svg="http://www.w3.org/2000/svg"
   xmlns="http://www.w3.org/2000/svg"
   xmlns:sodipodi="http://sodipodi.sourceforge.net/DTD/sodipodi-0.dtd"
   xmlns:inkscape="http://www.inkscape.org/namespaces/inkscape"
   inkscape:version="1.0 (4035a4fb49, 2020-05-01)"
   sodipodi:docname="default_picture - Copy.svg"
   id="svg8"
   version="1.1"
   viewBox="0 0 79.374998 79.375002"
   height="300"
   width="300">
  <defs
     id="defs2">
    <filter
       height="1.0009134"
       y="-0.00045669009"
       width="1.0009134"
       x="-0.00045669009"
       id="filter1256"
       style="color-interpolation-filters:sRGB"
       inkscape:collect="always">
      <feGaussianBlur
         id="feGaussianBlur1258"
         stdDeviation="0.014803555"
         inkscape:collect="always" />
    </filter>
    <filter
       inkscape:collect="always"
       style="color-interpolation-filters:sRGB"
       id="filter1256-5"
       x="-0.00045669009"
       width="1.0009134"
       y="-0.00045669009"
       height="1.0009134">
      <feGaussianBlur
         inkscape:collect="always"
         stdDeviation="0.014803555"
         id="feGaussianBlur1258-2" />
    </filter>
  </defs>
  <sodipodi:namedview
     inkscape:object-nodes="false"
     inkscape:snap-midpoints="false"
     inkscape:snap-smooth-nodes="false"
     inkscape:snap-intersection-paths="true"
     inkscape:object-paths="true"
     inkscape:window-maximized="1"
     inkscape:window-y="-9"
     inkscape:window-x="-9"
     inkscape:window-height="1051"
     inkscape:window-width="1920"
     inkscape:snap-nodes="true"
     showgrid="false"
     inkscape:document-rotation="0"
     inkscape:current-layer="layer3"
     inkscape:document-units="mm"
     inkscape:cy="169.95814"
     inkscape:cx="165.34636"
     inkscape:zoom="3.1961596"
     inkscape:pageshadow="2"
     inkscape:pageopacity="0"
     borderopacity="1.0"
     bordercolor="#666666"
     pagecolor="#121212"
     id="base"
     units="px" />
  <metadata
     id="metadata5">
    <rdf:RDF>
      <cc:Work
         rdf:about="">
        <dc:format>image/svg+xml</dc:format>
        <dc:type
           rdf:resource="http://purl.org/dc/dcmitype/StillImage" />
        <dc:title />
      </cc:Work>
    </rdf:RDF>
  </metadata>
  <g
     sodipodi:insensitive="true"
     style="display:inline;filter:url(#filter1256)"
     inkscape:label="Layer 1"
     id="layer3"
     inkscape:groupmode="layer">
    <g
       id="g885"
       style="display:inline;fill:#ffffff;stroke:none"
       transform="matrix(1.022481,0,0,1.0231963,-68.62778,-111.47593)">
      <path
         transform="matrix(0.26458333,0,0,0.26458333,67.154298,108.98412)"
         style="font-variation-settings:normal;display:inline;opacity:1;vector-effect:none;fill:#ffffff;fill-opacity:1;stroke:none;stroke-width:0.646156;stroke-linecap:butt;stroke-linejoin:miter;stroke-miterlimit:4;stroke-dasharray:none;stroke-dashoffset:0;stroke-opacity:1;filter:url(#filter1256-5);stop-color:#000000;stop-opacity:1"
         d="M 133.17018,292.56 C 98.065164,288.59373 69.047554,275.20698 44.947154,251.85993 24.351454,231.90807 10.292053,207.31128 3.8428334,179.94834 0.21861419,164.5714 -0.97519873,144.68572 0.833532,129.82156 8.0482647,70.530823 49.172964,22.092889 106.36951,5.5179597 c 24.57245,-7.120819 52.62444,-7.3588536 77.87921,-0.6608126 25.68729,6.8127119 50.35884,21.4314709 68.31356,40.4781739 31.99211,33.937777 46.19724,80.159889 38.54011,125.405559 -3.95585,23.37464 -13.64459,45.57131 -28.38581,65.03108 -4.66794,6.16214 -16.10785,18.02891 -22.66408,23.50979 -20.43425,17.08264 -45.03497,28.02237 -72.74703,32.35008 -7.56076,1.18072 -27.1787,1.71416 -34.13529,0.92817 z m 29.50499,-10.80604 c 28.85416,-3.08909 56.8323,-16.22567 78.28785,-36.75856 27.43332,-26.25358 42.28532,-60.88433 42.26498,-98.55027 -0.008,-16.47802 -1.9195,-28.38418 -7.01786,-43.73238 C 260.05908,54.091163 218.3286,19.053128 167.05576,11.063774 157.17335,9.5239188 136.55493,9.5058905 126.82499,11.029758 81.787593,18.078086 44.448993,45.325381 24.401392,85.77192 6.4373242,122.01491 5.6491528,165.1016 22.271413,202.21085 c 12.85516,28.6992 36.277531,52.87854 64.468892,66.55245 23.983255,11.63279 48.864985,15.88986 75.934865,12.99183 z"
         id="path1268" />
      <path
         sodipodi:nodetypes="cssscccsssssscscsssssscssssscccsssscssscssssscscccssssscsssssscscsccc"
         style="font-variation-settings:normal;opacity:1;vector-effect:none;fill:#ffffff;fill-opacity:1;stroke:none;stroke-width:0.071092;stroke-linecap:butt;stroke-linejoin:miter;stroke-miterlimit:4;stroke-dasharray:none;stroke-dashoffset:0;stroke-opacity:1;stop-color:#000000;stop-opacity:1"
         d="m 82.682879,175.52562 c -0.684004,-0.51568 -1.130202,-1.2765 -1.130202,-1.2765 0.02498,-0.0184 1.049656,-0.39204 1.711845,-0.65747 5.743411,-2.30217 10.736659,-4.9834 13.11659,-7.04323 l 0.54869,-0.47489 v -1.39235 -1.39236 l -0.24014,-0.2658 c -0.13207,-0.14619 -0.54832,-0.67715 -0.925,-1.17991 -1.589065,-2.12098 -2.782068,-4.51119 -3.19879,-6.40885 -0.107807,-0.49093 -0.161763,-0.6001 -0.448376,-0.90715 -1.332746,-1.42779 -2.18013,-3.39799 -2.17687,-5.06131 0.0024,-1.23539 0.444974,-2.72426 1.009002,-3.39457 l 0.170952,-0.20317 -0.05378,-4.22234 c -0.03207,-2.51789 -0.02763,-4.49007 0.01101,-4.88556 0.224954,-2.30292 1.100719,-4.6754 2.428501,-6.57888 0.676686,-0.97009 2.088108,-2.3478 3.074448,-3.00101 1.4563,-0.96444 2.81175,-1.55954 4.572631,-2.00757 4.10224,-1.04375 9.14226,-0.76784 12.68522,0.69444 4.19498,1.73139 6.91232,5.17172 7.82216,9.90339 0.15454,0.80369 0.15638,0.88032 0.13113,5.47269 l -0.0256,4.65758 0.18655,0.2217 c 0.65348,0.77662 1.1185,2.71713 0.94856,3.95831 -0.21471,1.56809 -0.97554,3.15868 -2.08459,4.35803 -0.37942,0.41031 -0.41199,0.4734 -0.52725,1.0212 -0.43951,2.08893 -1.84667,4.74886 -3.78601,7.15664 l -0.51293,0.63683 -10e-4,1.43305 -0.001,1.43305 0.40142,0.3515 c 2.37316,2.078 7.24836,4.70922 13.1245,7.08348 0.70073,0.28313 1.62317,0.67069 1.62317,0.69428 0,0.0236 -0.51917,0.57096 -1.22255,1.12713 l -1.31362,1.0387 -1.76481,-0.91443 c -6.46121,-3.34787 -11.67803,-5.98998 -13.41503,-8.33733 -0.57056,-0.77104 -0.55299,-0.69019 -0.61046,-2.80992 l -0.0516,-1.90236 0.48072,-0.50612 c 1.44975,-1.52637 2.72302,-3.48229 3.54662,-5.4481 0.33922,-0.80965 0.805,-2.21237 0.94927,-2.85875 0.0826,-0.37016 0.12722,-0.43323 0.58461,-0.82664 0.70477,-0.60617 1.26065,-1.27394 1.56154,-1.87583 0.24743,-0.49497 0.25982,-0.55256 0.25538,-1.1868 -0.008,-1.10811 -0.35543,-2.08886 -0.9436,-2.66183 l -0.32826,-0.31977 -0.047,-5.09059 c -0.0258,-2.79983 -0.0775,-5.41371 -0.11483,-5.80863 -0.28075,-2.97072 -2.01156,-5.49407 -4.71602,-6.8755 -1.96901,-1.00576 -3.94445,-1.42983 -6.97196,-1.49669 -2.45342,-0.0542 -3.96975,0.0901 -5.75362,0.54748 -3.474131,0.89074 -5.896685,3.00115 -6.841208,5.95973 -0.393308,1.23199 -0.414684,1.55571 -0.489519,7.41397 l -0.06885,5.38945 -0.303392,0.27965 c -0.751623,0.69283 -1.196449,2.48575 -0.862206,3.47523 0.239874,0.71011 1.018527,1.7039 1.818772,2.32129 0.270407,0.20861 0.394486,0.35799 0.428231,0.51554 0.257892,1.20401 1.037741,3.29711 1.682281,4.5152 0.77017,1.45552 2.00983,3.17167 2.94814,4.08133 l 0.35734,0.34644 v 1.9073 c 0,1.88672 -0.002,1.91095 -0.17138,2.24549 -0.9436,1.86211 -4.349196,4.37529 -9.322942,6.87992 -2.022797,1.01862 -5.074522,2.66652 -6.227626,3.1098 -0.128095,0.0492 -0.437741,-0.14687 -1.484681,-0.93617 z"
         id="path1057" />
    </g>
    <path
       transform="scale(0.26458333)"
       id="path839"
       d="m 138.43907,299.49464 c -4.30499,-0.31046 -12.57961,-1.57635 -18.61609,-2.84799 C 90.35389,290.43875 65.589441,277.0399 44.418136,255.84872 14.065919,225.46802 -1.3621554,185.56457 0.48624835,142.2225 1.7061211,113.61846 12.670835,83.538388 30.464203,59.982409 43.600965,42.59114 60.556679,28.056006 79.401662,18.03122 97.155885,8.5866734 114.54525,3.243723 134.841,0.9972685 139.84041,0.44390424 154.84986,0.25051279 160.34036,0.66871842 180.30383,2.1893175 197.30837,6.7210944 214.9429,15.220503 c 30.15917,14.535985 53.88011,38.037617 68.97476,68.337052 7.96336,15.984828 12.57533,31.561905 14.92804,50.419905 0.80997,6.4923 0.80782,25.66254 -0.004,32.22618 -2.69208,21.77588 -9.21065,41.334 -19.76086,59.2899 -7.4411,12.66437 -12.58514,19.18835 -24.54997,31.13577 -9.74661,9.73242 -17.02434,15.4759 -27.70485,21.86429 -19.253,11.51587 -43.03564,19.21711 -63.8266,20.66816 -6.36214,0.44403 -20.38415,0.63408 -24.56073,0.33288 z m 21.12444,-10.34674 c 27.94429,-1.83672 53.42858,-11.4322 76.00056,-28.61615 0.3316,-0.25245 0.54279,-0.5151 0.46931,-0.58367 -0.0735,-0.0686 -3.58305,-1.91762 -7.79904,-4.109 -22.63786,-11.76664 -29.69881,-15.68716 -37.23219,-20.67278 -6.78495,-4.4903 -11.55387,-8.91043 -13.30534,-12.3322 -0.61288,-1.19735 -1.04595,-6.1962 -1.07222,-12.37632 l -0.0147,-3.45937 2.66387,-2.95458 c 4.82473,-5.35124 9.21493,-12.05897 12.05304,-18.41564 1.52205,-3.40902 3.66993,-9.5559 4.35869,-12.47384 0.33878,-1.43525 0.65473,-1.88928 2.39501,-3.44163 4.3769,-3.90427 7.00236,-8.15506 6.99845,-11.33097 -0.005,-4.40996 -1.36508,-8.47266 -3.68364,-11.00684 l -1.23673,-1.35174 -0.22179,-19.24184 c -0.12198,-10.58302 -0.3471,-20.69298 -0.50027,-22.46659 -0.37925,-4.391788 -1.30124,-7.711256 -3.27559,-11.79328 -3.65723,-7.5614 -9.80907,-13.157531 -18.41881,-16.754996 -5.99799,-2.506179 -11.54635,-3.564118 -21.2197,-4.046084 -20.29083,-1.010976 -34.45781,3.069885 -43.60527,12.560687 -5.44006,5.644249 -8.25441,11.982218 -8.89074,20.022113 -0.18174,2.29621 -0.44305,12.65005 -0.58069,23.00852 l -0.25025,18.8336 -1.24143,1.34687 c -2.30638,2.50227 -3.5651,6.18222 -3.559966,10.40778 0.0025,1.98571 0.15819,2.84496 0.73966,4.07987 1.111156,2.35985 3.276106,5.10677 5.775686,7.32826 1.75907,1.56337 2.31372,2.27001 2.57224,3.27708 1.1654,4.53997 3.90525,11.80337 6.12208,16.22985 2.65479,5.30095 7.92527,12.70999 11.50416,16.17211 l 1.44191,1.39487 v 7.5292 7.52921 l -1.17328,1.99237 c -2.27783,3.86802 -8.25134,9.25857 -15.87843,14.32882 -7.41961,4.93233 -13.509944,8.2803 -33.210998,18.2567 l -10.371084,5.25181 3.487824,2.50033 c 4.893569,3.50807 10.499801,6.93616 15.994273,9.78017 23.342975,12.08263 48.177455,17.30543 74.165405,15.5973 z M 59.438009,251.31364 c 1.548733,-0.57034 5.570213,-2.20389 8.936622,-3.6301 19.815012,-8.39479 35.739989,-17.18785 44.643309,-24.65004 l 2.26834,-1.90118 v -5.54989 -5.54989 l -2.22126,-2.75083 c -6.99004,-8.65647 -12.00626,-18.22469 -14.810407,-28.25018 -0.34509,-1.23377 -0.975202,-2.29641 -2.226313,-3.7545 -4.743612,-5.5284 -7.65687,-12.64697 -7.645197,-18.68112 0.0082,-4.2504 1.638729,-9.91437 3.590859,-12.47374 l 0.754181,-0.98878 0.115244,-19.36133 c 0.109826,-18.45115 0.146432,-19.48887 0.7787,-22.07422 1.593181,-6.514582 4.4106,-13.169866 7.761893,-18.335103 2.53202,-3.902512 9.01464,-10.312673 13.17484,-13.027588 3.53169,-2.30475 8.41088,-4.713882 11.99098,-5.920627 18.02937,-6.077156 41.78084,-4.970503 57.07142,2.659132 8.01678,4.000182 13.97974,9.163115 18.68779,16.180525 3.29758,4.915089 5.33698,9.306365 6.9296,14.92096 1.79476,6.327181 1.78758,6.221961 1.78758,26.191971 v 18.48151 l 1.09209,1.58728 c 2.01165,2.92378 3.27391,7.63531 3.28273,12.25321 0.0119,6.22423 -2.80676,12.98107 -7.93868,19.03054 -1.30077,1.53333 -1.77039,2.3748 -2.04697,3.66771 -1.72449,8.06168 -6.81858,17.911 -14.04807,27.16168 l -2.55526,3.26966 0.0108,5.80373 0.0108,5.80373 2.5012,2.03369 c 9.67765,7.86878 25.78862,16.55071 47.69374,25.70138 l 6.57039,2.74472 3.69781,-3.6635 c 6.63445,-6.5729 12.40197,-13.65935 17.87829,-21.96672 3.94222,-5.9802 5.48288,-8.67759 8.74151,-15.30467 8.9172,-18.13492 13.32881,-36.52573 13.85355,-57.75175 0.47272,-19.1215 -2.14451,-34.9941 -8.66855,-52.57184 C 265.1333,57.624144 229.35519,25.559653 184.58821,14.151821 172.03584,10.95314 165.8575,10.265078 149.85903,10.284141 136.95849,10.299513 132.78216,10.606812 124.98542,12.114366 80.207106,20.772569 44.007703,48.461085 24.362336,89.07983 8.414094,122.0544 6.2195493,160.75216 18.312493,195.76043 c 6.839377,19.79954 17.72338,37.18169 32.899709,52.54202 3.405099,3.44639 4.711064,4.58208 5.008104,4.35516 0.221003,-0.16883 1.668969,-0.77362 3.217703,-1.34397 z"
       style="font-variation-settings:normal;opacity:1;vector-effect:none;fill:#ffffff;fill-opacity:1;stroke:none;stroke-width:0.0391564;stroke-linecap:butt;stroke-linejoin:miter;stroke-miterlimit:4;stroke-dasharray:none;stroke-dashoffset:0;stroke-opacity:1;stop-color:#000000;stop-opacity:1" />
  </g>
</svg>
