<?xml version="1.0" encoding="UTF-8" standalone="no"?>
<svg
   xmlns:dc="http://purl.org/dc/elements/1.1/"
   xmlns:cc="http://creativecommons.org/ns#"
   xmlns:rdf="http://www.w3.org/1999/02/22-rdf-syntax-ns#"
   xmlns:svg="http://www.w3.org/2000/svg"
   xmlns="http://www.w3.org/2000/svg"
   xmlns:sodipodi="http://sodipodi.sourceforge.net/DTD/sodipodi-0.dtd"
   xmlns:inkscape="http://www.inkscape.org/namespaces/inkscape"
   inkscape:version="1.0 (4035a4fb49, 2020-05-01)"
   sodipodi:docname="delete_icon.svg"
   id="svg861"
   version="1.1"
   width="40"
   viewBox="0 0 40 40"
   height="40">
  <metadata
     id="metadata867">
    <rdf:RDF>
      <cc:Work
         rdf:about="">
        <dc:format>image/svg+xml</dc:format>
        <dc:type
           rdf:resource="http://purl.org/dc/dcmitype/StillImage" />
        <dc:title></dc:title>
      </cc:Work>
    </rdf:RDF>
  </metadata>
  <defs
     id="defs865" />
  <sodipodi:namedview
     inkscape:current-layer="svg861"
     inkscape:window-maximized="1"
     inkscape:window-y="-9"
     inkscape:window-x="-9"
     inkscape:cy="20.421473"
     inkscape:cx="13.181661"
     inkscape:zoom="16.854167"
     showgrid="false"
     id="namedview863"
     inkscape:window-height="1051"
     inkscape:window-width="1920"
     inkscape:pageshadow="2"
     inkscape:pageopacity="0"
     guidetolerance="10"
     gridtolerance="10"
     objecttolerance="10"
     borderopacity="1"
     bordercolor="#666666"
     pagecolor="#94979c" />
  <path
     id="path857"
     fill="none"
     d="M 0,0 H 24 V 24 H 0 Z" />
  <path
     style="fill:#696b6e;fill-opacity:1;stroke-width:2.22222"
     id="path859"
     d="M 6.6666583,35.555556 C 6.6666583,38 8.6666511,40 11.111087,40 h 17.777714 c 2.444436,0 4.444429,-2 4.444429,-4.444444 V 13.333333 c 0,-2.444444 -1.999993,-4.4444441 -4.444429,-4.4444441 H 11.111087 c -2.4444359,0 -4.4444287,2.0000001 -4.4444287,4.4444441 z M 13.333301,13.333333 h 13.333286 c 1.222217,0 2.222214,1 2.222214,2.222223 v 17.777777 c 0,1.222223 -0.999997,2.222223 -2.222214,2.222223 H 13.333301 c -1.222218,0 -2.222214,-1 -2.222214,-2.222223 V 15.555556 c 0,-1.222223 0.999996,-2.222223 2.222214,-2.222223 z M 27.777694,2.2222222 26.199922,0.64444444 C 25.799924,0.24444444 25.222148,0 24.644372,0 H 15.355516 C 14.77774,0 14.199965,0.24444444 13.799966,0.64444444 L 12.222194,2.2222222 H 6.6666583 c -1.2222179,0 -2.2222143,1 -2.2222143,2.2222222 0,1.2222223 0.9999964,2.2222223 2.2222143,2.2222223 H 33.33323 c 1.222218,0 2.222214,-1 2.222214,-2.2222223 0,-1.2222222 -0.999996,-2.2222222 -2.222214,-2.2222222 z" />
</svg>
