<?xml version="1.0" encoding="UTF-8" standalone="no"?>
<svg
   xmlns:dc="http://purl.org/dc/elements/1.1/"
   xmlns:cc="http://creativecommons.org/ns#"
   xmlns:rdf="http://www.w3.org/1999/02/22-rdf-syntax-ns#"
   xmlns:svg="http://www.w3.org/2000/svg"
   xmlns="http://www.w3.org/2000/svg"
   xmlns:sodipodi="http://sodipodi.sourceforge.net/DTD/sodipodi-0.dtd"
   xmlns:inkscape="http://www.inkscape.org/namespaces/inkscape"
   inkscape:version="1.0 (4035a4fb49, 2020-05-01)"
   sodipodi:docname="drag_handle_icon.svg"
   id="svg861"
   version="1.1"
   width="32"
   viewBox="0 0 32 32"
   height="32">
  <metadata
     id="metadata867">
    <rdf:RDF>
      <cc:Work
         rdf:about="">
        <dc:format>image/svg+xml</dc:format>
        <dc:type
           rdf:resource="http://purl.org/dc/dcmitype/StillImage" />
        <dc:title></dc:title>
      </cc:Work>
    </rdf:RDF>
  </metadata>
  <defs
     id="defs865" />
  <sodipodi:namedview
     inkscape:current-layer="svg861"
     inkscape:window-maximized="1"
     inkscape:window-y="-9"
     inkscape:window-x="-9"
     inkscape:cy="20.89863"
     inkscape:cx="17.112918"
     inkscape:zoom="15.3125"
     showgrid="false"
     id="namedview863"
     inkscape:window-height="1051"
     inkscape:window-width="1920"
     inkscape:pageshadow="2"
     inkscape:pageopacity="0"
     guidetolerance="10"
     gridtolerance="10"
     objecttolerance="10"
     borderopacity="1"
     bordercolor="#666666"
     pagecolor="#121212"
     inkscape:document-rotation="0" />
  <path
     id="path857"
     fill="none"
     d="M 0,0 H 24 V 24 H 0 Z" />
  <path
     style="fill:#f6c90e;fill-opacity:1;stroke-width:2.30939"
     id="path859"
     d="M 29.999999,12 H 2 c -1.1,0 -2,1.2 -2,2.666667 0,1.466666 0.9,2.666666 2,2.666666 H 29.999999 C 31.100001,17.333333 32,16.133333 32,14.666667 32,13.2 31.100001,12 29.999999,12 Z M 2,28 H 29.999999 C 31.100001,28 32,26.8 32,25.333333 32,23.866667 31.100001,22.666667 29.999999,22.666667 H 2 c -1.1,0 -2,1.2 -2,2.666666 C 0,26.8 0.9,28 2,28 Z" />
</svg>
