<?xml version="1.0" encoding="UTF-8" standalone="no"?>
<svg
   xmlns:dc="http://purl.org/dc/elements/1.1/"
   xmlns:cc="http://creativecommons.org/ns#"
   xmlns:rdf="http://www.w3.org/1999/02/22-rdf-syntax-ns#"
   xmlns:svg="http://www.w3.org/2000/svg"
   xmlns="http://www.w3.org/2000/svg"
   xmlns:sodipodi="http://sodipodi.sourceforge.net/DTD/sodipodi-0.dtd"
   xmlns:inkscape="http://www.inkscape.org/namespaces/inkscape"
   height="40"
   viewBox="0 0 40 40"
   width="40"
   version="1.1"
   id="svg861"
   sodipodi:docname="drag_handle_icon.svg"
   inkscape:version="1.0 (4035a4fb49, 2020-05-01)">
  <metadata
     id="metadata867">
    <rdf:RDF>
      <cc:Work
         rdf:about="">
        <dc:format>image/svg+xml</dc:format>
        <dc:type
           rdf:resource="http://purl.org/dc/dcmitype/StillImage" />
        <dc:title />
      </cc:Work>
    </rdf:RDF>
  </metadata>
  <defs
     id="defs865" />
  <sodipodi:namedview
     inkscape:document-rotation="0"
     pagecolor="#121212"
     bordercolor="#666666"
     borderopacity="1"
     objecttolerance="10"
     gridtolerance="10"
     guidetolerance="10"
     inkscape:pageopacity="0"
     inkscape:pageshadow="2"
     inkscape:window-width="1920"
     inkscape:window-height="1051"
     id="namedview863"
     showgrid="false"
     inkscape:zoom="15.3125"
     inkscape:cx="17.112918"
     inkscape:cy="20.89863"
     inkscape:window-x="-9"
     inkscape:window-y="-9"
     inkscape:window-maximized="1"
     inkscape:current-layer="svg861" />
  <path
     d="M 0,0 H 24 V 24 H 0 Z"
     fill="none"
     id="path857" />
  <path
     d="M 37.5,12.5 H 2.5 C 1.125,12.5 0,13.625 0,15 c 0,1.375 1.125,2.5 2.5,2.5 h 35 c 1.375001,0 2.5,-1.125 2.5,-2.5 0,-1.375 -1.124999,-2.5 -2.5,-2.5 z m -35,15 h 35 c 1.375001,0 2.5,-1.125 2.5,-2.5 0,-1.375 -1.124999,-2.5 -2.5,-2.5 H 2.5 C 1.125,22.5 0,23.625 0,25 c 0,1.375 1.125,2.5 2.5,2.5 z"
     id="path859"
     style="fill:#ffec4f;fill-opacity:1;stroke-width:2.5" />
</svg>
