<?xml version="1.0" encoding="UTF-8" standalone="no"?>
<svg
   xmlns:dc="http://purl.org/dc/elements/1.1/"
   xmlns:cc="http://creativecommons.org/ns#"
   xmlns:rdf="http://www.w3.org/1999/02/22-rdf-syntax-ns#"
   xmlns:svg="http://www.w3.org/2000/svg"
   xmlns="http://www.w3.org/2000/svg"
   xmlns:sodipodi="http://sodipodi.sourceforge.net/DTD/sodipodi-0.dtd"
   xmlns:inkscape="http://www.inkscape.org/namespaces/inkscape"
   height="40"
   viewBox="0 0 40 40"
   width="40"
   version="1.1"
   id="svg849"
   sodipodi:docname="plus_icon.svg"
   inkscape:version="1.0 (4035a4fb49, 2020-05-01)">
  <metadata
     id="metadata855">
    <rdf:RDF>
      <cc:Work
         rdf:about="">
        <dc:format>image/svg+xml</dc:format>
        <dc:type
           rdf:resource="http://purl.org/dc/dcmitype/StillImage" />
        <dc:title></dc:title>
      </cc:Work>
    </rdf:RDF>
  </metadata>
  <defs
     id="defs853" />
  <sodipodi:namedview
     inkscape:document-rotation="0"
     pagecolor="#94979c"
     bordercolor="#666666"
     borderopacity="1"
     objecttolerance="10"
     gridtolerance="10"
     guidetolerance="10"
     inkscape:pageopacity="0"
     inkscape:pageshadow="2"
     inkscape:window-width="1920"
     inkscape:window-height="1051"
     id="namedview851"
     showgrid="false"
     inkscape:zoom="16.095966"
     inkscape:cx="16.517567"
     inkscape:cy="20.30123"
     inkscape:window-x="-9"
     inkscape:window-y="-9"
     inkscape:window-maximized="1"
     inkscape:current-layer="svg849" />
  <path
     d="M 20.000001,0 C 17.800002,0 16.000002,1.8 16.000002,4 V 16.000002 H 4 c -2.2,0 -4,1.8 -4,4 0,2.2 1.8,4 4,4 h 12.000002 v 12 c 0,2.2 1.8,3.999998 3.999999,3.999998 2.200001,0 4.000001,-1.799998 4.000001,-3.999998 v -12 h 11.999999 c 2.200001,0 3.999999,-1.8 3.999999,-4 0,-2.2 -1.799998,-4 -3.999999,-4 H 24.000002 V 4 c 0,-2.2 -1.8,-4 -4.000001,-4 z"
     id="path847"
     sodipodi:nodetypes="sscssscssscssscss"
     style="fill:#696b6e;fill-opacity:1;stroke-width:4" />
</svg>
