<?xml version="1.0" encoding="UTF-8" standalone="no"?>
<svg
   xmlns:dc="http://purl.org/dc/elements/1.1/"
   xmlns:cc="http://creativecommons.org/ns#"
   xmlns:rdf="http://www.w3.org/1999/02/22-rdf-syntax-ns#"
   xmlns:svg="http://www.w3.org/2000/svg"
   xmlns="http://www.w3.org/2000/svg"
   xmlns:sodipodi="http://sodipodi.sourceforge.net/DTD/sodipodi-0.dtd"
   xmlns:inkscape="http://www.inkscape.org/namespaces/inkscape"
   width="300"
   height="300"
   viewBox="0 0 79.374998 79.375002"
   version="1.1"
   id="svg8"
   inkscape:version="1.0 (4035a4fb49, 2020-05-01)"
   sodipodi:docname="settings.svg">
  <defs
     id="defs2" />
  <sodipodi:namedview
     id="base"
     pagecolor="#161616"
     bordercolor="#666666"
     borderopacity="1.0"
     inkscape:pageopacity="0"
     inkscape:pageshadow="2"
     inkscape:zoom="2.1004676"
     inkscape:cx="154.82953"
     inkscape:cy="173.53249"
     inkscape:document-units="px"
     inkscape:current-layer="layer2"
     inkscape:document-rotation="0"
     showgrid="false"
     inkscape:window-width="1920"
     inkscape:window-height="1051"
     inkscape:window-x="-9"
     inkscape:window-y="-9"
     inkscape:window-maximized="1"
     units="px" />
  <metadata
     id="metadata5">
    <rdf:RDF>
      <cc:Work
         rdf:about="">
        <dc:format>image/svg+xml</dc:format>
        <dc:type
           rdf:resource="http://purl.org/dc/dcmitype/StillImage" />
        <dc:title />
      </cc:Work>
    </rdf:RDF>
  </metadata>
  <g
     sodipodi:insensitive="true"
     inkscape:groupmode="layer"
     id="layer2"
     inkscape:label="Layer 1"
     style="display:inline">
    <g
       id="g834"
       transform="matrix(0.54118889,0,0,0.5426625,-17.561739,-37.749385)">
      <path
         sodipodi:nodetypes="sssssssssssssssssssss"
         id="path877"
         d="m 102.71187,167.77756 c -3.032595,-0.39442 -5.675698,-1.21 -8.40872,-2.59467 -2.612003,-1.32336 -4.304061,-2.55875 -6.476111,-4.72828 -3.941016,-3.93646 -6.231389,-8.38789 -7.22612,-14.04425 -0.283445,-1.61176 -0.279648,-6.35159 0.0063,-7.94091 0.491395,-2.73064 1.174708,-4.85479 2.307138,-7.172 3.731654,-7.63583 10.805197,-12.78853 19.350073,-14.09551 1.78066,-0.27237 5.27086,-0.26941 7.10209,0.006 5.45914,0.82105 10.22259,3.16073 14.12681,6.93871 4.25973,4.12199 6.76803,9.13483 7.64247,15.27347 0.20631,1.44834 0.17214,4.94513 -0.0639,6.54286 -1.08455,7.33993 -5.10949,13.69903 -11.25765,17.78628 -2.94766,1.95958 -6.52707,3.3462 -10.12109,3.92079 -1.53333,0.24514 -5.45834,0.30558 -6.98131,0.10751 z m 5.63004,-6.49195 c 11.40475,-1.49503 18.80906,-12.43847 16.00698,-23.65804 -0.51299,-2.05404 -1.39197,-4.01542 -2.61253,-5.82969 -7.57736,-11.26318 -24.095676,-11.26065 -31.67688,0.005 -5.854459,8.6996 -3.494156,20.60066 5.243631,26.43931 3.813141,2.54797 8.490539,3.63978 13.038799,3.04355 z"
         style="fill:#ffec4f;fill-opacity:1;stroke:#ffec4f;stroke-width:0.111844;stroke-opacity:1" />
      <path
         id="path910"
         d="m 96.138102,215.34966 c -1.68633,-0.68136 -1.936017,-1.51635 -3.496628,-11.69321 l -1.498256,-9.77022 -3.215624,-1.12283 c -1.768591,-0.61755 -4.313917,-1.63739 -5.656281,-2.26631 l -2.440654,-1.14348 -8.132492,5.61995 c -4.472869,3.09097 -8.552125,5.77834 -9.065009,5.97194 -1.243039,0.46919 -1.478949,0.27203 -9.1939,-7.68356 -4.691563,-4.8379 -6.321978,-6.73107 -6.321978,-7.34083 0,-0.52587 2.0721,-3.70513 5.756145,-8.83174 3.165883,-4.40555 5.823524,-8.18567 5.905873,-8.40027 0.08235,-0.2146 -0.764807,-2.19327 -1.882571,-4.39704 -1.117764,-2.20376 -2.125692,-4.5909 -2.239838,-5.30475 -0.248825,-1.55605 0.600879,-1.28233 -11.383889,-3.66716 -4.803303,-0.9558 -9.002942,-1.90622 -9.332531,-2.11205 -1.201523,-0.75037 -1.321588,-1.78242 -1.321588,-11.36007 v -9.40049 l 0.820973,-0.64577 c 0.451532,-0.35518 1.855012,-0.81075 3.118839,-1.01238 1.26383,-0.20164 5.816415,-0.92691 10.116857,-1.61172 l 7.818983,-1.2451 0.726807,-2.4031 c 0.838039,-2.77089 2.79377,-7.15471 3.578955,-8.02233 0.295331,-0.32634 0.455441,-0.8058 0.355796,-1.06547 -0.09964,-0.25967 -2.773278,-4.14594 -5.941406,-8.63616 -3.847693,-5.45337 -5.760233,-8.45207 -5.760233,-9.03156 0,-0.67685 1.499724,-2.3787 6.823268,-7.742859 3.752797,-3.78143 7.189533,-6.967254 7.63719,-7.07961 1.132075,-0.284133 1.842169,0.151601 10.54699,6.471942 l 7.643079,5.549437 2.977841,-1.587548 c 1.637813,-0.873152 4.113223,-1.989654 5.500912,-2.481114 l 2.523072,-0.893564 1.615307,-9.735802 c 1.154915,-6.960906 1.791518,-9.976052 2.233549,-10.578731 l 0.618242,-0.84293 9.951198,-0.08924 c 9.09983,-0.08161 10.01039,-0.03834 10.64322,0.505758 0.56748,0.487913 0.96748,2.113715 2.22247,9.033186 0.84174,4.641001 1.69573,9.208905 1.89775,10.150893 l 0.36731,1.712712 3.94425,1.428572 c 2.16934,0.785718 4.61226,1.796069 5.42872,2.245225 1.42342,0.783063 1.52047,0.793133 2.3602,0.244941 0.48166,-0.314439 4.33708,-2.971937 8.56762,-5.905553 4.23053,-2.933618 8.00981,-5.333849 8.39839,-5.333849 0.46848,0 3.09297,2.371569 7.78994,7.039248 5.96572,5.928506 7.08246,7.192076 7.07728,8.007836 -0.004,0.69515 -1.28528,2.77711 -4.53717,7.37486 -2.49206,3.52345 -5.17338,7.32832 -5.95849,8.45527 l -1.42748,2.04899 1.3724,2.37047 c 1.44196,2.49062 3.00753,6.5089 3.0196,7.75027 0.008,0.8737 -0.81811,0.67701 11.06142,2.6321 5.05992,0.83274 9.49131,1.67006 9.84752,1.86071 1.12729,0.6033 1.3477,2.53598 1.34965,11.83457 0.002,8.52037 -0.0315,8.9973 -0.66803,9.57335 -0.91799,0.83078 -2.54818,1.20706 -12.4798,2.88062 -4.72884,0.79684 -8.72207,1.55566 -8.87385,1.68625 -0.15178,0.13059 -0.57918,1.42106 -0.94978,2.86772 -0.6999,2.73214 -2.32872,6.65407 -3.13898,7.5582 -0.4076,0.4548 0.28412,1.55131 5.43356,8.61328 3.24534,4.45067 6.05076,8.47145 6.23426,8.93506 0.24157,0.61034 0.21039,1.029 -0.11302,1.51727 -0.24565,0.37089 -3.49331,3.67097 -7.21703,7.3335 -5.84869,5.75261 -6.91202,6.65915 -7.81078,6.65915 -0.80765,0 -2.89552,-1.32284 -9.3325,-5.91287 l -8.2921,-5.91288 -4.40232,2.20352 c -2.42128,1.21193 -4.971,2.29444 -5.66603,2.40558 l -1.26371,0.20208 -1.71926,10.1584 c -1.61618,9.54932 -1.77271,10.20437 -2.61058,10.92507 -0.88127,0.75804 -0.99452,0.76643 -10.06044,0.7453 -5.04303,-0.0118 -9.489575,-0.15084 -9.881208,-0.30908 z m 16.217758,-6.16011 c 0.0975,-0.41725 0.83723,-4.65903 1.64391,-9.42617 0.81281,-4.80332 1.69536,-9.01652 1.97959,-9.45032 0.36455,-0.55636 1.31262,-1.01385 3.27776,-1.58169 1.52067,-0.43941 5.04317,-1.91465 7.82777,-3.27832 2.78461,-1.36367 5.23837,-2.37384 5.45281,-2.24484 0.21444,0.12901 3.87841,2.65154 8.14216,5.60563 4.26375,2.95408 7.90553,5.42986 8.09283,5.50174 0.1873,0.0719 2.36171,-1.89465 4.83202,-4.37005 l 4.49147,-4.50074 -5.41269,-7.61087 c -2.97697,-4.18598 -5.59231,-8.00512 -5.81186,-8.48698 -0.35422,-0.77743 -0.2794,-1.04288 0.6643,-2.35695 1.29052,-1.79703 2.70563,-5.25835 4.05747,-9.92446 0.55562,-1.91782 1.27282,-3.77712 1.59378,-4.13178 0.78073,-0.86269 1.64375,-1.05725 11.30372,-2.54826 l 8.29844,-1.28086 0.21516,-3.51647 c 0.11833,-1.93406 0.21515,-4.91783 0.21515,-6.6306 0,-2.95292 -0.0393,-3.12318 -0.75863,-3.28887 -0.41725,-0.0961 -4.74793,-0.81648 -9.62371,-1.60084 -9.701,-1.56059 -10.52233,-1.85279 -10.52233,-3.74354 0,-1.3649 -1.32428,-4.63772 -3.95375,-9.77128 -1.89648,-3.7025 -2.1301,-4.35546 -1.78743,-4.99574 0.2168,-0.40511 2.81108,-4.16901 5.76506,-8.36424 2.95398,-4.19523 5.37088,-7.79038 5.37088,-7.98923 0,-0.19885 -2.02007,-2.27862 -4.48904,-4.621706 l -4.48904,-4.260154 -5.54183,4.033047 c -7.81068,5.684193 -10.37379,7.360923 -11.25215,7.360923 -0.42065,0 -1.28037,-0.37694 -1.91049,-0.83765 -1.98731,-1.45301 -5.73376,-2.99948 -11.00992,-4.54468 -1.68706,-0.49408 -2.60703,-0.96154 -2.96371,-1.505913 -0.28449,-0.434181 -1.31526,-5.017248 -2.29059,-10.184593 l -1.77333,-9.395168 h -6.3711 -6.371108 l -1.535803,9.34962 c -1.798733,10.950264 -1.671793,10.692574 -5.78903,11.751694 -1.369618,0.35232 -4.462674,1.62887 -6.873454,2.83678 -2.616936,1.31119 -4.80957,2.19549 -5.441215,2.19447 -1.191384,-0.002 -1.642152,-0.29164 -10.405877,-6.687587 -3.338002,-2.436143 -6.144961,-4.426709 -6.237682,-4.423479 -0.09272,0.0032 -2.263002,2.011043 -4.822846,4.461799 l -4.654256,4.455917 4.121396,5.73193 c 6.26024,8.70657 7.041565,9.91325 7.041565,10.875 0,0.48719 -0.677733,2.26039 -1.506074,3.94046 -1.105546,2.2423 -4.536062,11.44462 -4.560665,12.23394 -0.01603,0.51438 -3.441261,1.30025 -10.891219,2.49884 l -9.004294,1.44866 v 6.44528 6.44529 l 5.816219,1.06763 c 3.198921,0.5872 7.332649,1.29357 9.18606,1.56972 3.800965,0.56632 4.901883,1.16452 5.346703,2.90521 0.832924,3.25943 2.092486,6.57641 3.759335,9.89999 1.907857,3.80413 2.137539,4.74967 1.462143,6.01924 -0.215485,0.40506 -2.579989,3.82972 -5.254456,7.61036 -2.674466,3.78063 -4.947451,7.09482 -5.051078,7.36487 -0.122142,0.3183 1.338879,2.02169 4.153784,4.84285 2.388205,2.39352 4.447931,4.35186 4.577167,4.35186 0.253148,0 14.596938,-9.87326 15.47981,-10.65522 0.292769,-0.2593 0.738278,-0.47146 0.990021,-0.47146 0.251743,0 2.591572,1.00161 5.199618,2.2258 2.608048,1.22418 6.107453,2.67904 7.776453,3.23302 1.669002,0.55398 3.217325,1.18344 3.440716,1.39881 0.223393,0.21536 1.022368,3.8813 1.775502,8.14653 0.753139,4.26522 1.528665,8.5479 1.723395,9.51706 l 0.354055,1.7621 5.625395,0.10107 c 3.09397,0.0556 5.9639,0.13507 6.37762,0.17664 0.53613,0.0539 0.80312,-0.14236 0.92942,-0.68307 z"
         style="fill:#ffec4f;fill-opacity:1;stroke:#ffec4f;stroke-width:0.337172;stroke-opacity:1" />
    </g>
  </g>
</svg>
